<svg width="36" height="36" viewBox="0 0 36 36" fill="none" xmlns="http://www.w3.org/2000/svg">
<path d="M33 27.9075C33 28.2059 32.8815 28.492 32.6705 28.703C32.4595 28.914 32.1734 29.0325 31.875 29.0325H24.225C23.9744 29.9668 23.4226 30.7924 22.6551 31.3812C21.8876 31.97 20.9473 32.2891 19.98 32.2891C19.0127 32.2891 18.0724 31.97 17.3049 31.3812C16.5374 30.7924 15.9856 29.9668 15.735 29.0325H4.125C3.82663 29.0325 3.54048 28.914 3.3295 28.703C3.11853 28.492 3 28.2059 3 27.9075C3 27.6091 3.11853 27.323 3.3295 27.112C3.54048 26.901 3.82663 26.7825 4.125 26.7825H15.735C15.9856 25.8482 16.5374 25.0227 17.3049 24.4339C18.0724 23.8451 19.0127 23.5259 19.98 23.5259C20.9473 23.5259 21.8876 23.8451 22.6551 24.4339C23.4226 25.0227 23.9744 25.8482 24.225 26.7825H31.875C32.1734 26.7825 32.4595 26.901 32.6705 27.112C32.8815 27.323 33 27.6091 33 27.9075ZM33 8.09252C33 8.39089 32.8815 8.67703 32.6705 8.88801C32.4595 9.09899 32.1734 9.21752 31.875 9.21752H28.2C27.9494 10.1518 27.3976 10.9774 26.6301 11.5662C25.8626 12.155 24.9223 12.4741 23.955 12.4741C22.9877 12.4741 22.0474 12.155 21.2799 11.5662C20.5124 10.9774 19.9606 10.1518 19.71 9.21752H4.125C3.97726 9.21752 3.83097 9.18842 3.69448 9.13188C3.55799 9.07535 3.43397 8.99248 3.3295 8.88801C3.22504 8.78355 3.14217 8.65953 3.08564 8.52304C3.0291 8.38655 3 8.24025 3 8.09252C3 7.94478 3.0291 7.79849 3.08564 7.662C3.14217 7.52551 3.22504 7.40149 3.3295 7.29702C3.43397 7.19256 3.55799 7.10969 3.69448 7.05315C3.83097 6.99662 3.97726 6.96752 4.125 6.96752H19.71C19.9606 6.0332 20.5124 5.20765 21.2799 4.61886C22.0474 4.03007 22.9877 3.71094 23.955 3.71094C24.9223 3.71094 25.8626 4.03007 26.6301 4.61886C27.3976 5.20765 27.9494 6.0332 28.2 6.96752H31.875C32.0233 6.9655 32.1705 6.99322 32.3079 7.04904C32.4453 7.10486 32.5701 7.18766 32.675 7.29253C32.7799 7.3974 32.8627 7.52222 32.9185 7.65962C32.9743 7.79703 33.002 7.94422 33 8.09252ZM33 17.9925C33.002 18.1408 32.9743 18.288 32.9185 18.4254C32.8627 18.5628 32.7799 18.6876 32.675 18.7925C32.5701 18.8974 32.4453 18.9802 32.3079 19.036C32.1705 19.0918 32.0233 19.1195 31.875 19.1175H14.325C14.0744 20.0518 13.5226 20.8774 12.7551 21.4662C11.9876 22.055 11.0473 22.3741 10.08 22.3741C9.11267 22.3741 8.17236 22.055 7.40487 21.4662C6.63737 20.8774 6.08556 20.0518 5.835 19.1175H4.125C3.82663 19.1175 3.54048 18.999 3.3295 18.788C3.11853 18.577 3 18.2909 3 17.9925C3 17.6941 3.11853 17.408 3.3295 17.197C3.54048 16.986 3.82663 16.8675 4.125 16.8675H5.835C6.08556 15.9332 6.63737 15.1077 7.40487 14.5189C8.17236 13.9301 9.11267 13.6109 10.08 13.6109C11.0473 13.6109 11.9876 13.9301 12.7551 14.5189C13.5226 15.1077 14.0744 15.9332 14.325 16.8675H31.875C32.1734 16.8675 32.4595 16.986 32.6705 17.197C32.8815 17.408 33 17.6941 33 17.9925Z" fill="white"/>
</svg>
