<svg width="36" height="36" viewBox="0 0 36 36" fill="none" xmlns="http://www.w3.org/2000/svg">
<path d="M27.9501 15.0014H27.4202V11.8837C27.4202 10.2475 26.0513 8.89872 24.3732 8.89872H21.2158C21.26 8.58916 21.26 8.25749 21.26 7.94793C21.26 4.67546 18.5442 2 15.2101 2C11.8761 2 9.16026 4.67546 9.16026 7.94793C9.16026 8.25749 9.16026 8.58916 9.20441 8.89872H6.04701C4.36895 8.89872 3 10.2475 3 11.8837V16.306C3 16.704 3.15456 16.9914 3.46368 17.2347C3.77279 17.4779 4.10399 17.5442 4.47934 17.4779C4.81054 17.4116 5.1859 17.3452 5.45085 17.3452C7.43803 17.3452 9.1161 19.0036 9.1161 20.9494C9.1161 22.9394 7.48219 24.5535 5.45085 24.5535C5.16382 24.5535 4.81054 24.4872 4.47934 24.4208C4.14815 24.3324 3.75071 24.4429 3.46368 24.6641C3.15456 24.8852 3 25.1947 3 25.5927V30.015C3 31.6512 4.36895 33 6.04701 33H24.4174C25.2564 33 26.0734 32.6462 26.6474 32.0492C27.1774 31.4743 27.4423 30.7668 27.4202 30.015V26.8973H27.9501C31.2842 26.8973 34 24.2218 34 20.9494C34 17.6769 31.2842 15.0014 27.9501 15.0014ZM25.1018 25.3495V29.9265C25.1018 30.2803 24.7927 30.5899 24.4174 30.5899H6.06909C5.69373 30.5899 5.38461 30.3024 5.38461 29.9265V26.8752C5.40669 26.8752 5.45085 26.8752 5.47293 26.8531C8.80698 26.831 11.5007 24.1776 11.5007 20.9051C11.5007 19.291 10.8604 17.7653 9.69017 16.6377C8.51994 15.51 6.97436 14.913 5.36254 14.9572V11.9058C5.36254 11.5521 5.67165 11.2425 6.04701 11.2425H10.7942C11.1695 11.2425 11.567 11.0435 11.8098 10.7118C12.0085 10.4244 12.0527 10.0485 11.8981 9.62839C11.6774 9.14194 11.5449 8.58916 11.5449 8.05849C11.5449 6.06847 13.1788 4.45435 15.2101 4.45435C17.1973 4.45435 18.8754 6.1127 18.8754 8.05849C18.8754 8.52282 18.8312 9.05349 18.5442 9.60628C18.3454 9.93795 18.3896 10.4023 18.6104 10.7118C18.8312 10.9772 19.2066 11.2425 19.6261 11.2425H24.4174C24.7927 11.2425 25.1018 11.53 25.1018 11.9058V16.5492C25.1018 16.9472 25.2564 17.2347 25.5655 17.4779C25.8967 17.7211 26.2942 17.7653 26.6695 17.6106C27.0228 17.4337 27.4202 17.3452 27.906 17.3452C29.8932 17.3452 31.5712 19.0036 31.5712 20.9494C31.5712 22.9394 29.9373 24.5535 27.906 24.5535C27.5527 24.5535 27.1553 24.4208 26.7799 24.3103L26.6474 24.266C26.2058 24.1555 25.8526 24.1997 25.5655 24.4208C25.2785 24.5535 25.1018 24.9073 25.1018 25.3495Z" fill="white"/>
</svg>
