<svg width="36" height="36" viewBox="0 0 36 36" fill="none" xmlns="http://www.w3.org/2000/svg">
<path fill-rule="evenodd" clip-rule="evenodd" d="M4.5 6.75C4.5 6.15326 4.73705 5.58097 5.15901 5.15901C5.58097 4.73705 6.15326 4.5 6.75 4.5H29.25C29.8467 4.5 30.419 4.73705 30.841 5.15901C31.2629 5.58097 31.5 6.15326 31.5 6.75V29.25C31.5 29.8467 31.2629 30.419 30.841 30.841C30.419 31.2629 29.8467 31.5 29.25 31.5H6.75C6.15326 31.5 5.58097 31.2629 5.15901 30.841C4.73705 30.419 4.5 29.8467 4.5 29.25V6.75ZM6.75 12.375V16.875H12.375V12.375H6.75ZM14.625 12.375V16.875H21.375V12.375H14.625ZM29.25 10.125H6.75V6.75H29.25V10.125ZM29.25 19.125H23.625V23.625H29.25V19.125ZM21.375 29.25V25.875H14.625V29.25H21.375ZM12.375 29.25V25.875H6.75V29.25H12.375ZM14.625 19.125V23.625H21.375V19.125H14.625Z" fill="white"/>
</svg>
