<svg t="1742353071501" class="icon" viewBox="0 0 2885 1024" version="1.1" xmlns="http://www.w3.org/2000/svg" p-id="22158" width="200" height="200"><path d="M1183.280035 47.812135v680.479184s261.607379-30.44508 261.607379 225.092032V309.396077c0-243.349706-261.607379-261.583942-261.607379-261.583942" fill="#231F1F" p-id="22159"></path><path d="M1305.81035 0v598.753244s144.420773 27.866975 144.420773 283.380651c0 255.537113 0.726557-475.379186 0.726557-612.276579C1450.981117 26.531048 1305.81035 0 1305.81035 0" fill="#AAAAAA" p-id="22160"></path><path d="M1454.918587 303.302373v619.260901s125.600604-351.794191 653.596576 101.436726c0-164.248747 1.007805-578.503399 1.007805-715.424229-521.902268-380.223662-654.604381-5.273397-654.604381-5.273398M0 766.822275h117.186606v-149.975419h66.749491c102.842965 0 160.592525-46.780893 160.592524-153.514453 0-103.757021-67.241674-148.803552-164.48312-148.803553H0v452.293425z m117.186606-358.567577h19.992035c46.054336 0 85.452473 0.632808 85.452473 58.663615 0 56.155822-42.421551 56.155822-85.452473 56.155821H117.186606v-114.819436zM391.379827 459.816804v184.475155c0 100.87423 72.022888 131.928681 165.233114 131.928681S721.869493 745.189627 721.869493 644.291959v-184.475155h-110.15541v163.451878c0 38.765329-9.703051 66.210432-55.101142 66.210433s-55.077705-27.445103-55.077705-66.210433v-163.451878h-110.155409zM787.493992 766.822275h110.155409v-34.195052h1.195304c19.710787 30.046646 56.718317 43.56998 92.553981 43.56998 91.358678 0 154.68632-75.585361 154.68632-164.365933 0-88.218077-62.741709-163.78-153.491016-163.780001-35.226294 0-71.647891 13.453022-94.921151 40.945v-219.068641h-110.15541L787.493992 766.822275z m175.779909-224.998284c44.460598 0 70.311964 32.296629 70.311963 70.640086 0 39.562198-25.827928 69.983841-70.311963 69.983841-44.460598 0-70.311964-30.421643-70.311964-69.983841 0-38.343457 25.827928-70.640086 70.311964-70.640086z" fill="#3978AD" p-id="22161"></path><path d="M1504.67602 766.822275h116.999108l37.804399-260.412076h1.195303l103.827333 260.412076h46.827768l108.608546-260.412076h1.195303l32.999749 260.412076h117.702227l-68.483853-452.316862h-116.999107l-97.241446 241.732531-91.827424-241.732531h-115.803804z" fill="#FFFFFF" p-id="22162"></path><path d="M2266.388959 567.605045c6.585887-32.202879 32.999748-49.218374 64.780756-49.218375 29.390401 0 56.390195 19.452977 61.85109 49.218375H2266.388959z m227.951386 51.866791c0-105.233572-62.108901-171.39713-169.381521-171.39713-100.61642 0-171.069007 61.780779-171.069007 164.365934 0 106.171065 76.499416 163.756563 178.990822 163.756563 70.499462 0 139.803621-32.952874 157.287863-105.467945h-105.280447c-11.999908 20.367032-28.827905 28.148223-52.265226 28.148222-45.093406 0-68.577602-23.88263-68.577602-67.991668h230.295118v-11.413976zM2774.955391 766.822275h110.178847v-496.87121h-110.178847v219.068642c-22.710764-27.491978-59.741732-40.945-94.944588-40.945001-90.772745 0-153.491016 75.585361-153.491016 163.756564s63.913575 164.342496 154.68632 164.342496c35.788789 0 73.429127-13.546772 92.507106-43.56998h1.242178v34.218489z m-65.601062-224.998284c44.437161 0 70.311964 32.296629 70.311964 70.640086 0 39.562198-25.827928 69.983841-70.311964 69.983841-44.437161 0-70.311964-30.421643-70.311963-69.983841 0-38.343457 25.827928-70.640086 70.311963-70.640086z" fill="#3978AD" p-id="22163"></path></svg>