<svg width="40" height="40" viewBox="0 0 40 40" fill="none" xmlns="http://www.w3.org/2000/svg">
<path d="M24.6979 0.555664L37.2223 12.5218V35.5557C37.2223 36.0664 37.1233 36.5721 36.931 37.0439C36.7386 37.5157 36.4567 37.9444 36.1013 38.3055C35.7459 38.6666 35.324 38.9531 34.8597 39.1485C34.3954 39.344 33.8977 39.4446 33.3951 39.4446H6.60499C6.1024 39.4446 5.60473 39.344 5.1404 39.1485C4.67607 38.9531 4.25417 38.6666 3.89878 38.3055C3.5434 37.9444 3.26149 37.5157 3.06916 37.0439C2.87682 36.5721 2.77783 36.0664 2.77783 35.5557V4.44455C2.77783 3.93386 2.87682 3.42816 3.06916 2.95634C3.26149 2.48452 3.5434 2.05581 3.89878 1.69469C4.25417 1.33358 4.67607 1.04712 5.1404 0.851688C5.60473 0.656253 6.1024 0.555664 6.60499 0.555664H24.6979ZM35.657 14.0171L23.1307 2.05289V10.1301C23.1307 11.1615 23.5339 12.1507 24.2516 12.88C24.9694 13.6093 25.9428 14.019 26.9578 14.019H35.657V14.0171Z" fill="#38A25C"/>
<path d="M14.4409 24.1304C14.0649 24.1304 13.7284 24.1984 13.4312 24.3345C13.1375 24.4705 12.8887 24.6675 12.6846 24.9253C12.4805 25.1795 12.3247 25.4893 12.2173 25.8545C12.1099 26.2161 12.0562 26.6243 12.0562 27.0791C12.0562 27.6878 12.1421 28.2124 12.314 28.6528C12.4858 29.0897 12.7472 29.4263 13.0981 29.6626C13.4491 29.8953 13.8931 30.0117 14.4302 30.0117C14.7632 30.0117 15.0872 29.9795 15.4023 29.915C15.7174 29.8506 16.0433 29.7629 16.3799 29.6519V30.7476C16.0612 30.8729 15.7389 30.9642 15.4131 31.0215C15.0872 31.0788 14.7113 31.1074 14.2852 31.1074C13.4831 31.1074 12.8171 30.9409 12.2871 30.6079C11.7607 30.2749 11.3669 29.8058 11.1055 29.2007C10.8477 28.5955 10.7188 27.8866 10.7188 27.0737C10.7188 26.4793 10.8011 25.9351 10.9658 25.4409C11.1305 24.9468 11.3704 24.5207 11.6855 24.1626C12.0007 23.8009 12.3892 23.5234 12.8511 23.3301C13.3166 23.1331 13.8483 23.0347 14.4463 23.0347C14.8402 23.0347 15.2269 23.0794 15.6064 23.1689C15.9896 23.2549 16.3441 23.3784 16.6699 23.5396L16.2188 24.603C15.9466 24.4741 15.6619 24.3631 15.3647 24.27C15.0675 24.1769 14.7596 24.1304 14.4409 24.1304Z" fill="white"/>
<path d="M22.5996 28.8623C22.5996 29.3278 22.485 29.7288 22.2559 30.0654C22.0303 30.402 21.7044 30.6598 21.2783 30.8389C20.8558 31.0179 20.3509 31.1074 19.7637 31.1074C19.4772 31.1074 19.2033 31.0913 18.9419 31.0591C18.6805 31.0269 18.4334 30.9803 18.2007 30.9194C17.9715 30.855 17.762 30.778 17.5723 30.6885V29.4746C17.891 29.6143 18.2472 29.7414 18.6411 29.856C19.035 29.967 19.436 30.0225 19.8442 30.0225C20.1772 30.0225 20.453 29.9795 20.6714 29.8936C20.8934 29.804 21.0581 29.6787 21.1655 29.5176C21.2729 29.3529 21.3267 29.1613 21.3267 28.9429C21.3267 28.7101 21.264 28.5132 21.1387 28.3521C21.0133 28.1909 20.8236 28.0441 20.5693 27.9116C20.3187 27.7756 20.0036 27.6305 19.624 27.4766C19.3662 27.3727 19.1191 27.2546 18.8828 27.1221C18.6501 26.9896 18.4424 26.8338 18.2598 26.6548C18.0771 26.4757 17.9321 26.2645 17.8247 26.021C17.7209 25.7739 17.6689 25.4839 17.6689 25.1509C17.6689 24.7069 17.7746 24.3273 17.9858 24.0122C18.2007 23.6971 18.5015 23.4554 18.8882 23.2871C19.2785 23.1188 19.7332 23.0347 20.2524 23.0347C20.6642 23.0347 21.0509 23.0776 21.4126 23.1636C21.7778 23.2495 22.1359 23.3713 22.4868 23.5288L22.0786 24.5654C21.7563 24.4329 21.443 24.3273 21.1387 24.2485C20.8379 24.1698 20.5299 24.1304 20.2148 24.1304C19.9427 24.1304 19.7118 24.1715 19.522 24.2539C19.3322 24.3363 19.1872 24.4526 19.0869 24.603C18.9902 24.7498 18.9419 24.9253 18.9419 25.1294C18.9419 25.3586 18.9974 25.5519 19.1084 25.7095C19.223 25.8634 19.3984 26.0049 19.6348 26.1338C19.8747 26.2627 20.1826 26.4059 20.5586 26.5635C20.9919 26.7425 21.3589 26.9305 21.6597 27.1274C21.964 27.3244 22.1968 27.5607 22.3579 27.8364C22.519 28.1086 22.5996 28.4505 22.5996 28.8623Z" fill="white"/>
<path d="M29.9365 23.1475L27.1919 31H25.8276L23.083 23.1475H24.4043L26.0586 28.0674C26.1087 28.2106 26.1624 28.3843 26.2197 28.5884C26.2806 28.7925 26.3361 28.9984 26.3862 29.2061C26.4399 29.4137 26.4811 29.5981 26.5098 29.7593C26.5384 29.5981 26.5778 29.4137 26.6279 29.2061C26.6816 28.9984 26.7371 28.7925 26.7944 28.5884C26.8517 28.3843 26.9054 28.2088 26.9556 28.062L28.6152 23.1475H29.9365Z" fill="white"/>
</svg>
