<svg width="40" height="41" viewBox="0 0 40 41" fill="none" xmlns="http://www.w3.org/2000/svg">
<path d="M24.6979 1.05566L37.2223 13.0218V36.0557C37.2223 36.5664 37.1233 37.0721 36.931 37.5439C36.7386 38.0157 36.4567 38.4444 36.1013 38.8055C35.7459 39.1666 35.324 39.4531 34.8597 39.6485C34.3954 39.844 33.8977 39.9446 33.3951 39.9446H6.60499C6.1024 39.9446 5.60473 39.844 5.1404 39.6485C4.67607 39.4531 4.25417 39.1666 3.89878 38.8055C3.5434 38.4444 3.26149 38.0157 3.06916 37.5439C2.87682 37.0721 2.77783 36.5664 2.77783 36.0557V4.94455C2.77783 4.43386 2.87682 3.92816 3.06916 3.45634C3.26149 2.98452 3.5434 2.55581 3.89878 2.19469C4.25417 1.83358 4.67607 1.54712 5.1404 1.35169C5.60473 1.15625 6.1024 1.05566 6.60499 1.05566H24.6979ZM35.657 14.5171L23.1307 2.55289V10.6301C23.1307 11.6615 23.5339 12.6507 24.2516 13.38C24.9694 14.1093 25.9428 14.519 26.9578 14.519H35.657V14.5171Z" fill="#AEAEAE"/>
<rect x="10" y="30.5" width="20" height="2" fill="white"/>
<rect x="10" y="25.5" width="20" height="2" fill="white"/>
<rect x="10" y="20.5" width="13" height="2" fill="white"/>
</svg>
