<svg width="40" height="40" viewBox="0 0 40 40" fill="none" xmlns="http://www.w3.org/2000/svg">
<path d="M24.6979 0.555664L37.2223 12.5218V35.5557C37.2223 36.0664 37.1233 36.5721 36.931 37.0439C36.7386 37.5157 36.4567 37.9444 36.1013 38.3055C35.7459 38.6666 35.324 38.9531 34.8597 39.1485C34.3954 39.344 33.8977 39.4446 33.3951 39.4446H6.60499C6.1024 39.4446 5.60473 39.344 5.1404 39.1485C4.67607 38.9531 4.25417 38.6666 3.89878 38.3055C3.5434 37.9444 3.26149 37.5157 3.06916 37.0439C2.87682 36.5721 2.77783 36.0664 2.77783 35.5557V4.44455C2.77783 3.93386 2.87682 3.42816 3.06916 2.95634C3.26149 2.48452 3.5434 2.05581 3.89878 1.69469C4.25417 1.33358 4.67607 1.04712 5.1404 0.851688C5.60473 0.656253 6.1024 0.555664 6.60499 0.555664H24.6979ZM35.657 14.0171L23.1307 2.05289V10.1301C23.1307 11.1615 23.5339 12.1507 24.2516 12.88C24.9694 13.6093 25.9428 14.019 26.9578 14.019H35.657V14.0171Z" fill="#0F90E3"/>
<path d="M15.5581 26.9985C15.5581 27.883 15.3934 28.6224 15.064 29.2168C14.7345 29.8076 14.2565 30.2534 13.6299 30.5542C13.0033 30.8514 12.2477 31 11.3633 31H9.18262V23.1475H11.5996C12.4124 23.1475 13.1143 23.2943 13.7051 23.5879C14.2959 23.8779 14.7524 24.3094 15.0747 24.8823C15.397 25.4517 15.5581 26.1571 15.5581 26.9985ZM14.2153 27.0361C14.2153 26.3916 14.1133 25.8617 13.9092 25.4463C13.7087 25.0309 13.4115 24.723 13.0176 24.5225C12.6273 24.3184 12.1457 24.2163 11.5728 24.2163H10.4717V29.9204H11.3848C12.3337 29.9204 13.0426 29.6787 13.5117 29.1953C13.9808 28.7119 14.2153 27.9922 14.2153 27.0361Z" fill="white"/>
<path d="M24.2217 27.063C24.2217 27.6681 24.1447 28.2196 23.9907 28.7173C23.8403 29.2114 23.613 29.6375 23.3086 29.9956C23.0042 30.3501 22.6229 30.624 22.1646 30.8174C21.7062 31.0107 21.1691 31.1074 20.5532 31.1074C19.9266 31.1074 19.3823 31.0107 18.9204 30.8174C18.4621 30.624 18.0807 30.3483 17.7764 29.9902C17.4756 29.6322 17.25 29.2043 17.0996 28.7065C16.9492 28.2088 16.874 27.6574 16.874 27.0522C16.874 26.243 17.0065 25.5376 17.2715 24.936C17.54 24.3309 17.9465 23.8618 18.4907 23.5288C19.0386 23.1922 19.7297 23.0239 20.564 23.0239C21.3804 23.0239 22.0589 23.1904 22.5996 23.5234C23.1403 23.8564 23.5449 24.3255 23.8135 24.9307C24.0856 25.5322 24.2217 26.243 24.2217 27.063ZM18.2275 27.063C18.2275 27.6681 18.3099 28.1927 18.4746 28.6367C18.6393 29.0771 18.8918 29.4173 19.2319 29.6572C19.5757 29.8936 20.0161 30.0117 20.5532 30.0117C21.0939 30.0117 21.5343 29.8936 21.8745 29.6572C22.2147 29.4173 22.4653 29.0771 22.6265 28.6367C22.7876 28.1927 22.8682 27.6681 22.8682 27.063C22.8682 26.1427 22.6838 25.423 22.3149 24.9038C21.9497 24.381 21.366 24.1196 20.564 24.1196C20.0269 24.1196 19.5846 24.2378 19.2373 24.4741C18.8936 24.7104 18.6393 25.0488 18.4746 25.4893C18.3099 25.9261 18.2275 26.4507 18.2275 27.063Z" fill="white"/>
<path d="M29.2544 24.1304C28.8784 24.1304 28.5418 24.1984 28.2446 24.3345C27.951 24.4705 27.7021 24.6675 27.498 24.9253C27.2939 25.1795 27.1382 25.4893 27.0308 25.8545C26.9233 26.2161 26.8696 26.6243 26.8696 27.0791C26.8696 27.6878 26.9556 28.2124 27.1274 28.6528C27.2993 29.0897 27.5607 29.4263 27.9116 29.6626C28.2625 29.8953 28.7065 30.0117 29.2437 30.0117C29.5767 30.0117 29.9007 29.9795 30.2158 29.915C30.5309 29.8506 30.8568 29.7629 31.1934 29.6519V30.7476C30.8747 30.8729 30.5524 30.9642 30.2266 31.0215C29.9007 31.0788 29.5247 31.1074 29.0986 31.1074C28.2965 31.1074 27.6305 30.9409 27.1006 30.6079C26.5742 30.2749 26.1803 29.8058 25.9189 29.2007C25.6611 28.5955 25.5322 27.8866 25.5322 27.0737C25.5322 26.4793 25.6146 25.9351 25.7793 25.4409C25.944 24.9468 26.1839 24.5207 26.499 24.1626C26.8141 23.8009 27.2026 23.5234 27.6646 23.3301C28.13 23.1331 28.6618 23.0347 29.2598 23.0347C29.6536 23.0347 30.0404 23.0794 30.4199 23.1689C30.8031 23.2549 31.1576 23.3784 31.4834 23.5396L31.0322 24.603C30.7601 24.4741 30.4754 24.3631 30.1782 24.27C29.881 24.1769 29.5731 24.1304 29.2544 24.1304Z" fill="white"/>
</svg>
