<svg width="40" height="41" viewBox="0 0 40 41" fill="none" xmlns="http://www.w3.org/2000/svg">
<path d="M24.6979 1.05566L37.2223 13.0218V36.0557C37.2223 36.5664 37.1233 37.0721 36.931 37.5439C36.7386 38.0157 36.4567 38.4444 36.1013 38.8055C35.7459 39.1666 35.324 39.4531 34.8597 39.6485C34.3954 39.844 33.8977 39.9446 33.3951 39.9446H6.60499C6.1024 39.9446 5.60473 39.844 5.1404 39.6485C4.67607 39.4531 4.25417 39.1666 3.89878 38.8055C3.5434 38.4444 3.26149 38.0157 3.06916 37.5439C2.87682 37.0721 2.77783 36.5664 2.77783 36.0557V4.94455C2.77783 4.43386 2.87682 3.92816 3.06916 3.45634C3.26149 2.98452 3.5434 2.55581 3.89878 2.19469C4.25417 1.83358 4.67607 1.54712 5.1404 1.35169C5.60473 1.15625 6.1024 1.05566 6.60499 1.05566H24.6979ZM35.657 14.5171L23.1307 2.55289V10.6301C23.1307 11.6615 23.5339 12.6507 24.2516 13.38C24.9694 14.1093 25.9428 14.519 26.9578 14.519H35.657V14.5171Z" fill="#EA5454"/>
<path d="M13.4365 23.6475C14.4499 23.6475 15.1893 23.8551 15.6548 24.2705C16.1203 24.6859 16.353 25.2677 16.353 26.0161C16.353 26.3563 16.2993 26.6803 16.1919 26.9883C16.0881 27.2926 15.9162 27.563 15.6763 27.7993C15.4364 28.0321 15.1195 28.2165 14.7256 28.3525C14.3353 28.4886 13.8537 28.5566 13.2808 28.5566H12.4429V31.5H11.1538V23.6475H13.4365ZM13.3506 24.7163H12.4429V27.4824H13.1465C13.5511 27.4824 13.8949 27.4359 14.1777 27.3428C14.4606 27.2461 14.6755 27.0939 14.8223 26.8862C14.9691 26.6785 15.0425 26.4046 15.0425 26.0645C15.0425 25.6097 14.9046 25.2713 14.6289 25.0493C14.3568 24.8273 13.9307 24.7163 13.3506 24.7163Z" fill="white"/>
<path d="M20.2041 23.6475C21.2174 23.6475 21.9569 23.8551 22.4224 24.2705C22.8879 24.6859 23.1206 25.2677 23.1206 26.0161C23.1206 26.3563 23.0669 26.6803 22.9595 26.9883C22.8556 27.2926 22.6838 27.563 22.4438 27.7993C22.2039 28.0321 21.887 28.2165 21.4932 28.3525C21.1029 28.4886 20.6213 28.5566 20.0483 28.5566H19.2104V31.5H17.9214V23.6475H20.2041ZM20.1182 24.7163H19.2104V27.4824H19.9141C20.3187 27.4824 20.6624 27.4359 20.9453 27.3428C21.2282 27.2461 21.443 27.0939 21.5898 26.8862C21.7367 26.6785 21.8101 26.4046 21.8101 26.0645C21.8101 25.6097 21.6722 25.2713 21.3965 25.0493C21.1243 24.8273 20.6982 24.7163 20.1182 24.7163Z" fill="white"/>
<path d="M27.4121 31.5H26.1177V24.7432H23.8188V23.6475H29.7056V24.7432H27.4121V31.5Z" fill="white"/>
</svg>
