<svg width="40" height="41" viewBox="0 0 40 41" fill="none" xmlns="http://www.w3.org/2000/svg">
<path d="M24.6979 1.05566L37.2223 13.0218V36.0557C37.2223 36.5664 37.1233 37.0721 36.931 37.5439C36.7386 38.0157 36.4567 38.4444 36.1013 38.8055C35.7459 39.1666 35.324 39.4531 34.8597 39.6485C34.3954 39.844 33.8977 39.9446 33.3951 39.9446H6.60499C6.1024 39.9446 5.60473 39.844 5.1404 39.6485C4.67607 39.4531 4.25417 39.1666 3.89878 38.8055C3.5434 38.4444 3.26149 38.0157 3.06916 37.5439C2.87682 37.0721 2.77783 36.5664 2.77783 36.0557V4.94455C2.77783 4.43386 2.87682 3.92816 3.06916 3.45634C3.26149 2.98452 3.5434 2.55581 3.89878 2.19469C4.25417 1.83358 4.67607 1.54712 5.1404 1.35169C5.60473 1.15625 6.1024 1.05566 6.60499 1.05566H24.6979ZM35.657 14.5171L23.1307 2.55289V10.6301C23.1307 11.6615 23.5339 12.6507 24.2516 13.38C24.9694 14.1093 25.9428 14.519 26.9578 14.519H35.657V14.5171Z" fill="#38A25C"/>
<path d="M17.3843 31.5H15.918L13.9414 28.2827L11.9541 31.5H10.5737L13.1841 27.4287L10.751 23.6475H12.1743L14.0005 26.623L15.8159 23.6475H17.1963L14.7524 27.4663L17.3843 31.5Z" fill="white"/>
<path d="M18.4424 31.5V23.6475H19.7314V30.4043H23.0669V31.5H18.4424Z" fill="white"/>
<path d="M28.959 29.3623C28.959 29.8278 28.8444 30.2288 28.6152 30.5654C28.3896 30.902 28.0638 31.1598 27.6377 31.3389C27.2152 31.5179 26.7103 31.6074 26.123 31.6074C25.8366 31.6074 25.5627 31.5913 25.3013 31.5591C25.0399 31.5269 24.7928 31.4803 24.5601 31.4194C24.3309 31.355 24.1214 31.278 23.9316 31.1885V29.9746C24.2503 30.1143 24.6066 30.2414 25.0005 30.356C25.3944 30.467 25.7954 30.5225 26.2036 30.5225C26.5366 30.5225 26.8123 30.4795 27.0308 30.3936C27.2528 30.304 27.4175 30.1787 27.5249 30.0176C27.6323 29.8529 27.686 29.6613 27.686 29.4429C27.686 29.2101 27.6234 29.0132 27.498 28.8521C27.3727 28.6909 27.1829 28.5441 26.9287 28.4116C26.6781 28.2756 26.363 28.1305 25.9834 27.9766C25.7256 27.8727 25.4785 27.7546 25.2422 27.6221C25.0094 27.4896 24.8018 27.3338 24.6191 27.1548C24.4365 26.9757 24.2915 26.7645 24.1841 26.521C24.0802 26.2739 24.0283 25.9839 24.0283 25.6509C24.0283 25.2069 24.134 24.8273 24.3452 24.5122C24.5601 24.1971 24.8608 23.9554 25.2476 23.7871C25.6379 23.6188 26.0926 23.5347 26.6118 23.5347C27.0236 23.5347 27.4103 23.5776 27.772 23.6636C28.1372 23.7495 28.4953 23.8713 28.8462 24.0288L28.438 25.0654C28.1157 24.9329 27.8024 24.8273 27.498 24.7485C27.1973 24.6698 26.8893 24.6304 26.5742 24.6304C26.3021 24.6304 26.0711 24.6715 25.8813 24.7539C25.6916 24.8363 25.5465 24.9526 25.4463 25.103C25.3496 25.2498 25.3013 25.4253 25.3013 25.6294C25.3013 25.8586 25.3568 26.0519 25.4678 26.2095C25.5824 26.3634 25.7578 26.5049 25.9941 26.6338C26.234 26.7627 26.542 26.9059 26.918 27.0635C27.3512 27.2425 27.7183 27.4305 28.019 27.6274C28.3234 27.8244 28.5562 28.0607 28.7173 28.3364C28.8784 28.6086 28.959 28.9505 28.959 29.3623Z" fill="white"/>
</svg>
